<?xml version="1.0" encoding="utf-8"?>
<svg version="1.1" id="Layer_1" xmlns="http://www.w3.org/2000/svg" xmlns:xlink="http://www.w3.org/1999/xlink" x="0px" y="0px"
	 viewBox="0 0 77 35" style="enable-background:new 0 0 77 35;" xml:space="preserve">
<style type="text/css">
	.st0{fill:#FFFFFF;}
</style>
<g>
	<path class="st0" d="M3.2,23.9c0.6,0,1-0.1,1.2-0.3c0.3-0.2,0.4-0.5,0.4-0.9V11.3H4.3c-0.6,0-1,0.1-1.4,0.3
		c-0.3,0.2-0.6,0.5-0.9,1.1c-0.2,0.5-0.5,1.3-0.8,2.4l-0.9-0.2l0.9-5.3h0.8c0.1,0.5,0.5,0.7,1.3,0.7h6c0.8,0,1.2-0.2,1.3-0.7h0.9
		l0.9,5.3l-0.9,0.2c-0.3-1.1-0.6-1.9-0.8-2.4c-0.2-0.5-0.5-0.9-0.9-1.1c-0.3-0.2-0.8-0.3-1.4-0.3H7.9v11.4c0,0.4,0.1,0.7,0.4,0.9
		c0.3,0.2,0.7,0.3,1.2,0.3v0.9H3.2V23.9z"/>
	<path class="st0" d="M19.3,9.3c1.7,0,3,0.5,3.9,1.5c0.9,1,1.4,2.5,1.4,4.3v3.9c0,3.9-1.8,5.9-5.3,5.9c-1.7,0-3-0.5-3.9-1.5
		c-0.9-1-1.4-2.5-1.4-4.4v-3.9c0-1.9,0.5-3.4,1.4-4.4C16.3,9.8,17.6,9.3,19.3,9.3z M19.3,23.8c0.6,0,1.2-0.2,1.6-0.7
		c0.4-0.5,0.6-1.1,0.6-1.9v-8.1c0-0.8-0.2-1.4-0.6-1.9c-0.4-0.5-0.9-0.7-1.6-0.7c-0.6,0-1.2,0.2-1.6,0.7c-0.4,0.5-0.6,1.1-0.6,1.9
		v8.1c0,0.8,0.2,1.4,0.6,1.9C18.1,23.6,18.6,23.8,19.3,23.8z"/>
	<path class="st0" d="M53.4,23.8c0.6,0,1-0.1,1.3-0.3c0.3-0.2,0.4-0.5,0.4-0.9V12.3c0-0.4-0.1-0.7-0.4-0.9c-0.3-0.2-0.7-0.3-1.3-0.3
		v-1h8.1c0.5,0,0.8-0.1,1-0.2c0.2-0.1,0.3-0.4,0.3-0.4h1l1.1,4.5l-0.9,0.3c-0.3-0.9-0.7-1.6-1-2c-0.3-0.5-0.7-0.8-1.2-0.9
		c-0.5-0.1-1.1-0.2-1.9-0.2h-2V17h2c0.7,0,1.1-0.5,1.1-1.5H62v4.2h-0.9c0-1.1-0.4-1.7-1.1-1.7h-2v5.7h2.8c0.8,0,1.4-0.1,1.9-0.3
		c0.4-0.2,0.8-0.5,1-1c0.2-0.5,0.4-1.3,0.5-2.3h0.9v5.2h-0.9c-0.1-0.2-0.2-0.4-0.5-0.5c-0.3-0.1-0.7-0.1-1.4-0.1h-8.9V23.8z"/>
	<path class="st0" d="M71.3,10.4c0.5,0,1,0,1.3,0.1c0.3,0.1,0.5,0.1,0.7,0.1c0.2,0,0.3-0.1,0.3-1h0.8l1.3,5l-0.9,0.2
		c-0.5-1.3-0.9-2.1-1.4-2.6c-0.5-0.5-1.1-0.7-1.8-0.7c-0.6,0-1,0.2-1.5,0.6c-0.4,0.4-0.6,0.9-0.6,1.4c0,0.5,0.1,0.9,0.4,1.3
		c0.3,0.3,0.7,0.7,1.4,1l2.9,1.6c0.8,0.4,1.4,1,1.8,1.7c0.4,0.7,0.6,1.5,0.6,2.4c0,0.7-0.2,1.4-0.6,2c-0.4,0.6-1,1.1-1.7,1.5
		c-0.7,0.4-1.5,0.5-2.4,0.5c-0.7,0-1.2-0.1-1.6-0.2c-0.4-0.1-0.7-0.3-1-0.4c-0.2-0.1-0.5-0.2-0.6-0.2c-0.4,0-0.7,0.2-0.8,0.5h-1
		v-5.3h0.9c0.3,1.4,0.7,2.5,1.4,3.2c0.6,0.8,1.4,1.2,2.4,1.2c0.4,0,0.8-0.1,1.2-0.4c0.4-0.2,0.7-0.5,0.9-0.9
		c0.2-0.4,0.4-0.7,0.4-1.1c0-1-0.6-1.8-1.9-2.5l-2.4-1.3c-1.8-1-2.7-2.3-2.7-3.8c0-0.7,0.2-1.4,0.6-2c0.4-0.6,1-1.1,1.6-1.5
		C69.9,10.6,70.6,10.4,71.3,10.4z"/>
	<path class="st0" d="M51.6,24.1c-0.6,0-1-0.2-1.4-0.6c-0.4-0.4-0.5-0.9-0.5-1.5v-0.3c0-2-0.8-3.3-2.3-3.9c1.6-0.6,2.5-1.9,2.5-4
		c0-1.4-0.4-2.5-1.2-3.3c-0.8-0.7-2.1-1.1-3.8-1.1h-6.8h-6.8c-1.7,0-2.9,0.4-3.8,1.1c-0.8,0.7-1.2,1.8-1.2,3.3c0,2,0.8,3.4,2.5,4
		c-1.5,0.6-2.3,1.9-2.3,3.9v0.3c0,0.6-0.2,1.1-0.5,1.5c-0.4,0.4-0.8,0.6-1.4,0.6H24v0.8h0.6c1.8,0,3.1-0.3,3.9-1
		c0.8-0.7,1.1-1.7,1.1-3v-0.6c0-0.6,0.2-1.1,0.5-1.5c0.4-0.4,0.8-0.6,1.4-0.6h0.8v-0.8h-1c-0.6,0-1.1-0.2-1.4-0.6
		c-0.4-0.4-0.5-0.9-0.5-1.4v-3.1c0-0.6,0.2-1.1,0.5-1.4c0.4-0.4,0.8-0.5,1.4-0.5h2.2v12.8c0,0.3-0.1,0.6-0.3,0.7
		c-0.2,0.1-0.6,0.2-1.2,0.2v0.8h4.5V11.5c0-0.7,0.7-1.2,1.6-1.2s1.6,0.5,1.6,1.2v13.3h4.5v-0.8c-0.6,0-1-0.1-1.2-0.2
		c-0.2-0.1-0.3-0.4-0.3-0.7V10.4h2.2c0.6,0,1.1,0.2,1.4,0.5c0.4,0.4,0.5,0.8,0.5,1.4v3.1c0,0.6-0.2,1.1-0.5,1.4
		c-0.4,0.4-0.8,0.6-1.4,0.6h-1v0.8h0.8c0.6,0,1.1,0.2,1.4,0.6c0.4,0.4,0.5,0.9,0.5,1.5v0.6c0,1.3,0.4,2.3,1.1,3c0.8,0.7,2,1,3.9,1
		h0.6v-0.8H51.6z"/>
</g>
</svg>
