<?xml version="1.0" encoding="utf-8"?>
<!-- Generator: Adobe Illustrator 24.0.1, SVG Export Plug-In . SVG Version: 6.00 Build 0)  -->
<svg version="1.1" id="Layer_1" xmlns="http://www.w3.org/2000/svg" xmlns:xlink="http://www.w3.org/1999/xlink" x="0px" y="0px"
	 viewBox="0 0 300 67" style="enable-background:new 0 0 300 67;" xml:space="preserve">
<style type="text/css">
	.st0{fill:#FFFFFF;}
</style>
<g>
	<path class="st0" d="M11,58.4c2.3,0,3.9-0.4,4.9-1.1c1-0.7,1.5-1.9,1.5-3.6V9.2h-1.8c-2.3,0-4.1,0.4-5.4,1.1
		c-1.3,0.7-2.5,2.1-3.4,4.2c-1,2.1-2,5.2-3.1,9.4l-3.6-1L3.6,2.2h3.1c0.2,1.8,1.9,2.7,4.9,2.7H35c3.1,0,4.7-0.9,4.9-2.7h3.5
		l3.6,20.8l-3.6,1c-1.1-4.2-2.2-7.3-3.1-9.4c-1-2.1-2.1-3.5-3.4-4.2c-1.3-0.7-3.1-1.1-5.4-1.1h-2v44.6c0,1.7,0.5,2.9,1.5,3.6
		c1,0.7,2.6,1.1,4.9,1.1v3.4H11V58.4z"/>
	<path class="st0" d="M74.5,1.3c6.6,0,11.7,2,15.3,6c3.6,4,5.4,9.7,5.4,17v15.3c0,15.4-6.9,23-20.7,23c-6.7,0-11.9-2-15.5-5.9
		c-3.6-3.9-5.4-9.7-5.4-17.1V24.3c0-7.6,1.8-13.3,5.3-17.2S67.7,1.3,74.5,1.3z M74.4,58.1c2.6,0,4.6-0.9,6.3-2.8
		c1.6-1.9,2.4-4.3,2.4-7.3V16c0-3-0.8-5.4-2.4-7.3c-1.6-1.9-3.7-2.9-6.3-2.9c-2.5,0-4.6,1-6.2,2.9c-1.7,1.9-2.5,4.4-2.5,7.3v32
		c0,3,0.8,5.5,2.4,7.3C69.6,57.2,71.8,58.1,74.4,58.1z"/>
	<path class="st0" d="M208.4,58.3c2.3,0,4-0.4,5-1.1c1-0.7,1.5-1.9,1.4-3.5V13c0.1-1.6-0.4-2.8-1.4-3.5c-1-0.7-2.6-1.1-5-1.1V4.5
		h31.8c1.9-0.1,3.2-0.3,4-0.6c0.8-0.3,1.3-1.7,1.3-1.7h4l4.5,17.8l-3.6,1c-1.3-3.5-2.6-6.2-3.8-8c-1.2-1.8-2.7-3-4.6-3.6
		c-1.9-0.6-4.4-0.9-7.6-0.9h-7.8v23.1h7.8c2.8,0,4.2-1.9,4.2-5.7h3.4v16.4h-3.4c0-4.5-1.4-6.7-4.2-6.7h-7.8v22.5h11.1
		c3.2,0,5.7-0.4,7.4-1.1c1.7-0.7,3-2.1,3.9-4.1c0.8-2,1.4-5,1.9-8.9h3.5v20.4h-3.6c-0.3-0.9-1-1.5-2-1.8c-1.1-0.3-2.9-0.5-5.4-0.5
		h-34.9V58.3z"/>
	<path class="st0" d="M278.7,5.7c2.1,0,3.8,0.1,5,0.4c1.2,0.3,2.1,0.3,2.7,0.3c0.6-0.1,1.3-0.5,1.3-3.8h3l5.1,19.5l-3.6,1
		c-1.8-4.9-3.6-8.3-5.4-10.2c-1.8-1.9-4.2-2.8-7.1-2.8c-2.2,0-4.1,0.8-5.7,2.3c-1.6,1.5-2.4,3.4-2.4,5.6c0,2,0.5,3.7,1.5,5
		c1,1.3,2.8,2.7,5.3,4.1l11.6,6.3c3.1,1.6,5.4,3.9,7.1,6.7c1.7,2.8,2.5,6,2.5,9.6c0,2.9-0.8,5.6-2.5,8c-1.7,2.4-3.9,4.4-6.7,5.8
		c-2.8,1.4-6,2.1-9.5,2.1c-2.6,0-4.8-0.3-6.4-0.7c-1.6-0.5-2.9-1-3.9-1.5c-1-0.5-1.8-0.7-2.5-0.7c-1.6,0-2.7,0.6-3.2,1.9h-3.7V43.7
		h3.6c1,5.6,2.8,9.7,5.3,12.7c2.5,3.1,5.6,4.6,9.3,4.6c1.6,0,3.2-0.5,4.7-1.4c1.5-0.9,2.7-2.1,3.6-3.5c0.9-1.4,1.4-2.9,1.4-4.5
		c0-3.8-2.5-7.1-7.5-9.9l-9.4-5.3c-7.1-3.9-10.6-8.9-10.6-15c0-2.8,0.8-5.4,2.5-7.8c1.6-2.4,3.8-4.4,6.4-5.8
		C272.9,6.4,275.7,5.7,278.7,5.7z"/>
	<path class="st0" d="M201.2,59.5c-2.3,0-4.1-0.7-5.5-2.2c-1.4-1.5-2.1-3.4-2.1-5.8v-1.2c0-7.8-3-12.9-9.1-15.4
		c6.5-2.3,9.7-7.5,9.7-15.5c0-5.6-1.6-9.9-4.8-12.8c-3.2-2.9-8.1-4.4-14.7-4.4h-26.6h-26.6c-6.6,0-11.5,1.5-14.7,4.4
		c-3.2,2.9-4.8,7.2-4.8,12.8c0,8,3.2,13.2,9.7,15.5c-6,2.5-9.1,7.6-9.1,15.4v1.2c0,2.4-0.7,4.3-2.1,5.8c-1.4,1.5-3.2,2.2-5.5,2.2
		h-2.2v3H95c7.1,0,12.2-1.3,15.1-4c3-2.6,4.4-6.6,4.4-11.8v-2.3c0-2.4,0.7-4.3,2.1-5.8c1.4-1.5,3.2-2.3,5.5-2.3h3.1v-3h-3.8
		c-2.3,0-4.1-0.7-5.5-2.2c-1.4-1.4-2.1-3.3-2.1-5.7V13.2c0-2.4,0.7-4.2,2.1-5.6c1.4-1.4,3.2-2.1,5.5-2.1h8.5v50.3
		c0,1.3-0.4,2.2-1.3,2.7c-0.8,0.5-2.4,0.7-4.8,0.7v3h17.8V9.9c0-2.6,2.8-4.7,6.2-4.7s6.2,2.1,6.2,4.7v52.2h17.8v-3
		c-2.3,0-3.9-0.2-4.8-0.7c-0.8-0.5-1.3-1.4-1.3-2.7V5.5h8.8c2.3,0,4.1,0.7,5.5,2.1c1.4,1.4,2.1,3.3,2.1,5.6v12.3
		c0,2.4-0.7,4.2-2.1,5.7c-1.4,1.4-3.2,2.2-5.5,2.2h-3.8v3h3.1c2.3,0,4.1,0.8,5.5,2.3c1.4,1.5,2.1,3.5,2.1,5.8v2.3
		c0,5.2,1.5,9.2,4.4,11.8c2.9,2.6,8,4,15.1,4h2.2v-3H201.2z"/>
	<path class="st0" d="M18.9,2.2h-0.1h-3.2h-0.1c-0.2,1.8-1.9,2.7-4.9,2.7h4.6h4.1h4.6C20.8,4.8,19.1,3.9,18.9,2.2z"/>
	<path class="st0" d="M32,2.2h-0.1h-3.2h-0.1c-0.2,1.8-1.9,2.7-4.9,2.7h4.6h4.1H37C33.9,4.8,32.3,3.9,32,2.2z"/>
</g>
</svg>
