<svg viewBox="0 0 56 60" xmlns="http://www.w3.org/2000/svg"><path d="m8.75 0h40v60h-40z" fill="#2bf8f5"/><path d="m30.45 2.43c-12.86 0-20.74 12.81-20.74 12.81s7.88 12.82 20.74 12.82 20.74-12.82 20.74-12.82-7.87-12.81-20.74-12.81zm0 23.79a10.76 10.76 0 0 1 -10.51-11 10.75 10.75 0 0 1 10.54-11 10.75 10.75 0 0 1 10.52 11.02 10.75 10.75 0 0 1 -10.52 11zm5.09-11a5.09 5.09 0 1 1 -10.18 0 5.2 5.2 0 0 1 5.08-5.31 5.2 5.2 0 0 1 5.09 5.3zm-23.93 33.47v8.66a1.07 1.07 0 0 1 -1 1.08h-8.33a1.06 1.06 0 0 1 -1-1.08v-8.66a1.06 1.06 0 0 1 1-1.08h8.3a1.07 1.07 0 0 1 1.03 1.08zm17.8 9.74h-12.41a1.07 1.07 0 0 1 -1-1.08v-13a1.06 1.06 0 0 1 1-1.08h12.41a1.05 1.05 0 0 1 1 1.08v13a1.06 1.06 0 0 1 -1 1.08zm-11.41-2.17h10.38v-10.81h-10.38zm38.2 2.17h-1v-2.17h2.08v1.09a1.07 1.07 0 0 1 -1 1.08zm-2.42 0h-2.07v-2.17h2.08zm-3.46 0h-2.06v-2.17h2.07zm-3.45 0h-2.07v-2.17h2.08zm-3.46 0h-2.06v-2.17h2.07zm-3.46 0h-2.06v-2.17h2.11zm-3.45 0h-1a1.06 1.06 0 0 1 -1-1.08v-1.09h2zm0-3.61h-2.07v-2.16h2.08zm0-3.6h-2.07v-2.16h2.08zm0-3.61h-2.07v-2.16h2.08zm0-3.6h-2.07v-2.16h2.08zm0-3.61h-2.07v-2.16h2.08zm0-3.6h-2.07v-1.08a1.06 1.06 0 0 1 1-1.08h1zm17.28 0h-2.07v-2.16h2.08zm-3.46 0h-2.06v-2.16h2.07zm-3.45 0h-2.07v-2.16h2.08zm-3.46 0h-2.06v-2.16h2.07zm-3.41 0h-2.11v-2.16h2.11zm17.29 0h-2.12v-2.16h1a1.06 1.06 0 0 1 1 1.08zm0 18h-2.12v-2.14h2.08zm0-3.6h-2.12v-2.14h2.08zm0-3.61h-2.12v-2.14h2.08zm0-3.6h-2.12v-2.14h2.08zm0-3.61h-2.12v-2.14h2.08z" fill="#411b90" transform="translate(-1.25)"/></svg>