<svg viewBox="0 0 60 60" xmlns="http://www.w3.org/2000/svg"><path d="m10 0h40v60h-40z" fill="#2bf8f5"/><g fill="#411b90"><path d="m25.75 12c-14.75 0-22.09 17.94-11.68 28.26a16.31 16.31 0 0 0 11.68 4.86 16.57 16.57 0 0 0 0-33.14zm-10.3 26.87c-9.21-9.13-2.67-24.87 10.3-24.87a14.59 14.59 0 0 1 14.56 14.55c0 12.9-15.65 19.54-24.86 10.32z"/><path d="m28.22 23.48a1.38 1.38 0 0 1 .3 1.21 1 1 0 0 0 1 1.26 1 1 0 0 0 1-1 4.43 4.43 0 0 0 -3.5-4.4v-1.22a1 1 0 0 0 -2 0v1.21c-3.18.79-5.1 4.89-1.72 8.24a2.55 2.55 0 0 0 2.24.71 2.56 2.56 0 0 1 2.54 4 1.33 1.33 0 0 1 -.5.5 2.56 2.56 0 0 1 -4.06-2 1 1 0 1 0 -2 0 4.43 4.43 0 0 0 3.5 4.4v1.2a1 1 0 1 0 2 0v-1.2c3.16-.79 5.07-4.83 1.79-8.18a2.65 2.65 0 0 0 -2.32-.77 2.49 2.49 0 0 1 -3-2.47c-.14-2.17 2.74-3.61 4.73-1.49z"/><path d="m59.63 3.25-4.36-3.08a1.07 1.07 0 0 0 -1.39.2 1.09 1.09 0 0 0 .2 1.39l2.58 1.79-11.59 2.68a1 1 0 0 0 -.69.59l-2.48 6.45a21.84 21.84 0 0 0 -16.15-7c-18.82 0-29 21.82-17.33 36.31l-7.42 7a.86.86 0 0 0 -.3.6l-.7 8.73a1.09 1.09 0 0 0 .89 1.09 1.08 1.08 0 0 0 1.11-.89l.69-8.44 7.14-6.74a21.78 21.78 0 0 0 15.94 6.74 22.89 22.89 0 0 0 11.77-3.37l9.21 10.81c4 4.67 11.39-1.19 7.13-6.25l-9.5-11.21a22.25 22.25 0 0 0 -.9-25.79l2.58-6.95 10.7-2.28-1.59 2.18a1.06 1.06 0 0 0 .2 1.39 1.06 1.06 0 0 0 1.39-.2l3.07-4.36a1.06 1.06 0 0 0 -.2-1.39zm-7.13 50.2a2.74 2.74 0 1 1 -4.16 3.55l-9.12-10.69a20.76 20.76 0 0 0 4-3.87zm-12.5-10.61a20.2 20.2 0 0 1 -28.63 0c-12.76-12.84-3.64-34.63 14.38-34.63s27.14 21.79 14.25 34.63z"/></g></svg>