<svg viewBox="0 0 60 60" xmlns="http://www.w3.org/2000/svg"><circle cx="30" cy="30" fill="#2bf8f5" r="30"/><g fill="#411b90"><path d="m55 53c-.13.15-.27.29-.41.43l-.14.12-.42.36-.21.15-.46.31-.19.13-.69.39-.25.12-.54.24-.32.14-.59.22-.28.1-.86.26-.36.09c-.21.06-.41.11-.62.15l-.41.09-.72.13-.34.06c-.32 0-.65.09-1 .12h-.43l-.7.06h-.46-.91-.42-.92-.44l-.72-.06h-.41c-.35 0-.69-.08-1-.13h-.27l-.77-.14-.38-.08-.65-.16-.34-.1-.88-.26-.24-.09-.63-.24-.3-.12-.56-.29-.23-.11-.7-.39-.18-.12-.48-.32-.17-.15a5.37 5.37 0 0 1 -.44-.37l-.12-.1a5.77 5.77 0 0 1 -.44-.44v1.92a3.19 3.19 0 0 0 1.25 2.36c1.55 1.41 4.29 2.42 7.53 2.79a23.35 23.35 0 0 0 8.3-.52 12.6 12.6 0 0 0 4-1.76l.15-.1a3.69 3.69 0 0 0 1.77-2.77z"/><path d="m32 50.16a2.56 2.56 0 0 0 .24 1.07c0 .08.09.16.14.24s.09.18.15.27c1.48 2.17 5.9 3.8 11 3.8 5.45 0 10.17-1.89 11.26-4.31a2.56 2.56 0 0 0 .21-1.07v-1.54c-1.92 2.26-6.29 3.82-11.5 3.82s-9.58-1.55-11.5-3.82z"/><path d="m43.5 51.44c6.23 0 11.5-2.44 11.5-5.38v-2a7.77 7.77 0 0 1 -1.85 1.54 19 19 0 0 1 -9.65 2.28 19 19 0 0 1 -9.65-2.28 7.77 7.77 0 0 1 -1.85-1.5v2c0 2.9 5.27 5.34 11.5 5.34z"/><path d="m43.66 36.27c-6.14 0-11.33 2.43-11.33 5.31 0 1.63 1.67 3.11 4.24 4.09a21.41 21.41 0 0 0 14.19 0c2.57-1 4.24-2.46 4.24-4.09 0-2.88-5.19-5.31-11.34-5.31z"/><path d="m5 54.25v.42c0 2.92 5.27 5.38 11.5 5.38s11.5-2.46 11.5-5.38v-2a7.77 7.77 0 0 1 -1.85 1.54 19 19 0 0 1 -9.65 2.28 19 19 0 0 1 -9.65-2.28 7.77 7.77 0 0 1 -1.85-1.5z"/><path d="m5 50.19c0 1.63 1.67 3.11 4.24 4.09a20.27 20.27 0 0 0 7.1 1.21 20.25 20.25 0 0 0 7.09-1.21c2.57-1 4.24-2.46 4.24-4.09 0-2.88-5.19-5.3-11.33-5.3s-11.34 2.42-11.34 5.3z"/><path d="m16 9v26.17l-3.42-3.55-.71.73 4.63 4.81 4.62-4.81-.7-.73-3.42 3.55v-26.17z"/><path d="m44 28v-26.17l3.42 3.55.71-.73-4.63-4.81-4.62 4.81.7.73 3.42-3.55v26.17z"/></g></svg>