<svg viewBox="0 0 60 60" xmlns="http://www.w3.org/2000/svg"><path d="m60 60h-60l30-60z" fill="#2bf8f5"/><g fill="#411b90"><path d="m20.29 59.71a1 1 0 0 0 1.42 0l5-5-1.42-1.42-4.29 4.3-18.59-18.59 11.3-11.29-1.42-1.42-12 12a1 1 0 0 0 0 1.42z"/><path d="m60 20.89-2-18a1 1 0 0 0 -.89-.89l-18-2a1 1 0 0 0 -.82.28l-7 7 1.42 1.42 6.66-6.66 16.73 1.87 1.9 16.72-4 3.93-1.9-12.78a3 3 0 1 0 -2 .07l1.55 10.4-14-14a1 1 0 0 0 -1.42 0l-5 5 1.42 1.42 4.35-4.26 12.59 12.59-2.3 2.29 1.42 1.42 3-3a1.64 1.64 0 0 0 .14-.22l.42 2.83-2 2 1.42 1.42.92-.93.66 4.19a3.38 3.38 0 0 0 6.73-.78c0-.09 0-.18 0-.27l-1.84-8.63 1.62-1.61a1 1 0 0 0 .22-.82zm-9-12.89a1 1 0 1 1 -1 1 1 1 0 0 1 1-1zm7 24.35a1.38 1.38 0 1 1 -2.7.53s0-.07 0-.11l-.9-5.77 2-2z"/><path d="m6.65 35.35h9.19v2h-9.19z" transform="matrix(.70710678 -.70710678 .70710678 .70710678 -22.41 18.6)"/><path d="m9.75 38.45h9.19v2h-9.19z" transform="matrix(.70710678 -.70710678 .70710678 .70710678 -23.69 21.7)"/><path d="m13.41 42.9h5.37v2h-5.37z" transform="matrix(.70710678 -.70710678 .70710678 .70710678 -26.33 24.24)"/><path d="m16.74 46.55h3.82v2h-3.82z" transform="matrix(.70710678 -.70710678 .70710678 .70710678 -28.16 27.11)"/><path d="m19.99 50h2.83v2h-2.83z" transform="matrix(.70710678 -.70710678 .70710678 .70710678 -29.79 30.07)"/><path d="m36 55a15.88 15.88 0 0 0 9.46-3.13l7.21 7.22a3.13 3.13 0 0 0 4.42-4.42l-7.38-7.38-.13.13a16 16 0 1 0 -13.58 7.58zm19.67 1.09a1.12 1.12 0 0 1 -1.58 1.58l-7.09-7.08a17.09 17.09 0 0 0 1.52-1.66zm-19.67-31.09a14 14 0 1 1 -14 14 14 14 0 0 1 14-14z"/><path d="m36 51a12 12 0 1 0 -12-12 12 12 0 0 0 12 12zm0-22a10 10 0 1 1 -10 10 10 10 0 0 1 10-10z"/><path d="m37 43h-2a1 1 0 0 1 -1-1h-2a3 3 0 0 0 3 3v2h2v-2a3 3 0 0 0 3-3v-1a3 3 0 0 0 -3-3h-2a1 1 0 0 1 -1-1v-1a1 1 0 0 1 1-1h2a1 1 0 0 1 1 1h2a3 3 0 0 0 -3-3v-2h-2v2a3 3 0 0 0 -3 3v1a3 3 0 0 0 3 3h2a1 1 0 0 1 1 1v1a1 1 0 0 1 -1 1z"/><path d="m5 24h6.68l6.74 4.81a1 1 0 0 0 .58.19 1 1 0 0 0 .54-.16 1 1 0 0 0 .44-1l-.76-3.84h5.78a5 5 0 0 0 5-5v-14a5 5 0 0 0 -5-5h-20a5 5 0 0 0 -5 5v14a5 5 0 0 0 5 5zm-3-19a3 3 0 0 1 3-3h20a3 3 0 0 1 3 3v14a3 3 0 0 1 -3 3h-7a1 1 0 0 0 -1 1 1.36 1.36 0 0 0 0 .2l.5 2.52-4.94-3.53a1 1 0 0 0 -.56-.19h-7a3 3 0 0 1 -3-3z"/><path d="m5 20h21v-2h-20v-2.67l2-2.66 2.2 2.93a1.07 1.07 0 0 0 .8.4 1 1 0 0 0 .8-.44l3.26-4.89 4.14 5a1 1 0 0 0 .8.33h.09a1 1 0 0 0 .78-.51l5-9-1.74-1-4.3 7.72-4.06-4.85a1 1 0 0 0 -1.6.08l-3.17 4.83-2.2-2.87a1 1 0 0 0 -1.46-.14l-.14.14-1.2 1.6v-7h-2v14a1 1 0 0 0 1 1z"/></g></svg>