<svg viewBox="0 0 60 60" xmlns="http://www.w3.org/2000/svg"><path d="m60 60h-60l30-60z" fill="#2bf8f5"/><g fill="#411b90"><path d="m58 12.43-11.22-11.25a1.21 1.21 0 0 0 -1.72 0l-11.26 11.25a1.22 1.22 0 0 0 .86 2.08h4.89v4a14.94 14.94 0 0 0 -19.18.07 1.2 1.2 0 0 0 -1.14-.83h-10.3a1.22 1.22 0 0 0 -1.22 1.21v26.53h-4.89a1.22 1.22 0 0 0 -.82 2.08l11.22 11.25a1.21 1.21 0 0 0 1.72 0l11.26-11.25a1.22 1.22 0 0 0 -.86-2.08h-4.9v-4a15 15 0 0 0 19.19-.07 1.2 1.2 0 0 0 1.14.83h10.3a1.22 1.22 0 0 0 1.22-1.21v-26.53h4.89a1.22 1.22 0 0 0 .82-2.08zm-35.6 35.49-8.32 8.32-8.32-8.32h3.17a1.22 1.22 0 0 0 1.22-1.21v-26.56h7.85v.92a14.87 14.87 0 0 0 0 17.86v7.78a1.22 1.22 0 0 0 1.22 1.21zm7.6-5.38a12.54 12.54 0 1 1 12.54-12.54 12.55 12.55 0 0 1 -12.54 12.54zm21.07-30.46a1.22 1.22 0 0 0 -1.22 1.21v26.56h-7.85v-.91a14.9 14.9 0 0 0 0-17.88v-7.77a1.22 1.22 0 0 0 -1.22-1.21h-3.18l8.32-8.32 8.32 8.32z"/><path d="m30.79 28.86c-2.14-.89-3.05-1.52-3.05-2.8 0-1 .72-2.11 2.6-2.11a5.84 5.84 0 0 1 3.09.84l.62-1.62a6.53 6.53 0 0 0 -3.19-.86v-2.38h-1.52v2.48a4 4 0 0 0 -3.71 3.95c0 2.13 1.55 3.26 4.05 4.24 1.82.73 2.77 1.57 2.77 2.92s-1.17 2.4-2.92 2.4a6.55 6.55 0 0 1 -3.53-1.05l-.58 1.64a7 7 0 0 0 3.75 1.08v2.48h1.54v-2.56a4.26 4.26 0 0 0 3.88-4.16c0-2.19-1.28-3.46-3.8-4.49z"/></g></svg>