<svg viewBox="0 0 60 60" xmlns="http://www.w3.org/2000/svg"><path d="m60 60h-60l30-60z" fill="#2bf8f5"/><g fill="#411b90"><path d="m30.76 53.93h-24.5a5.12 5.12 0 1 1 0-10.23h1.56a.45.45 0 0 0 .48-.48v-35.4h41.13v-1h-41.13v-5a.45.45 0 0 0 -.48-.48h-1.56a6.09 6.09 0 0 0 -6.07 6.15v41.37a6.07 6.07 0 0 0 6.07 6h24.5zm-29.62-46.44a5.13 5.13 0 0 1 5.12-5.12h1.09v40.38h-1.09a6.19 6.19 0 0 0 -5.12 2.79z"/><path d="m59.52 30.57a.42.42 0 0 0 -.52.09l-29.57 27.73a.42.42 0 0 0 -.09.52.44.44 0 0 0 .42.28h29.57a.45.45 0 0 0 .48-.47v-27.72a.46.46 0 0 0 -.29-.43zm-.66 5h-1.14v1h1.14v1.57h-2.18v.86h2.18v1.57h-1.14v1h1.14v1.56h-2.18v1h2.18v1.56h-1.14v.95h1.14v1.46h-2.18v.95h2.18v1.56h-1.14v1h1.14v1.57h-2.18v.94h2.18v1.57h-1.14v1h1.14v1.51h-27.86l27.86-26.2z"/><path d="m39.81 54.74a.45.45 0 0 0 .43.28h13.93a.45.45 0 0 0 .47-.47v-13.22a.42.42 0 0 0 -.28-.43.42.42 0 0 0 -.52.09l-13.84 13.23a.53.53 0 0 0 -.19.52zm13.88-12.32v11.65h-12.22z"/><path d="m46.63 15.93a.41.41 0 0 0 -.28-.29l-14.22-4.64a.56.56 0 0 0 -.57.19l-2.22 3.84-2.23-3.84a.45.45 0 0 0 -.57-.19l-14.22 4.6a.48.48 0 0 0 -.23.71l2.51 4.31-2.51 4.38a.48.48 0 0 0 .23.71l2.33.76v8.53a.57.57 0 0 0 .33.47l14.21 4.53a.3.3 0 0 0 .29 0l14.22-4.6a.46.46 0 0 0 .33-.47v-8.58l2.32-.76a.4.4 0 0 0 .28-.28.47.47 0 0 0 0-.43l-2.52-4.31 2.52-4.31c.05-.05.05-.19 0-.33zm-33.41.42 13.27-4.35 2.14 3.7-13.27 4.35zm0 8.53 2.14-3.69 13.27 4.31-2.18 3.69c-1.33-.42 4.97 1.62-13.23-4.31zm15.64 13.93-13.27-4.26v-7.87l11 3.56a.51.51 0 0 0 .57-.19l1.75-3zm.48-14.07-12.66-4.12 12.66-4.13 12.66 4.13zm13.74 9.81-13.27 4.26v-11.81l1.75 3a.45.45 0 0 0 .57.19l10.95-3.51zm2.42-9.67c-18.2 5.93-11.9 3.89-13.27 4.31l-2.18-3.69 13.27-4.31zm-2.18-4.83-13.27-4.31 2.13-3.74 13.27 4.31z"/><path d="m13.37 43.74h12.23v.95h-12.23z"/><path d="m13.37 47.68h17.34v.95h-17.34z"/><path d="m55.45 29.81a.49.49 0 0 0 .8 0c3.18-5.35 3.08-5.07 3.08-5.26v-21.75a2 2 0 0 0 -2-2h-3a2 2 0 0 0 -2 2v21.75c.09.28.13.14 3.12 5.26zm.42-1.18-2.18-3.63h4.36zm2.52-4.55h-2v-18.82h2zm-5-21.28a1.05 1.05 0 0 1 1-1h3a1 1 0 0 1 1 1v1.52h-5v-1.52zm0 2.46h2v18.82h-2z"/></g></svg>