<svg viewBox="0 0 60 60" xmlns="http://www.w3.org/2000/svg"><circle cx="30" cy="30" fill="#2bf8f5" r="30"/><g fill="#411b90"><path d="m45.18 1.83a.94.94 0 0 0 -1.32 0l-19.78 19.78h2.67l17.77-17.8 2.85 2.85-14.95 15h2.64l13.63-13.66 8.91 8.91-4.74 4.72h2.63l4.07-4.06a.94.94 0 0 0 0-1.32z"/><path d="m58.25 23.83a.9.9 0 0 0 -.73-.36h-41a.93.93 0 0 0 -.93.94 1.64 1.64 0 0 0 0 .22l5.53 22.37a1 1 0 0 0 .91.71h29.97a.93.93 0 0 0 .9-.71l5.54-22.38a.92.92 0 0 0 -.19-.79zm-7 22h-28.49l-5.08-20.49h38.65z"/><path d="m24.65 38.39h24.71a.93.93 0 1 0 0-1.86h-24.71a.93.93 0 0 0 0 1.86z"/><path d="m27.21 33.73h19.58a.94.94 0 1 0 0-1.87h-19.58a.94.94 0 0 0 0 1.87z"/><path d="m1.1 20.32a.93.93 0 0 0 .9-.93v-1a3.78 3.78 0 0 1 7.46-.93l8.39 33.26a1 1 0 0 0 .87.72h30.46a.94.94 0 0 0 0-1.87h-29.69l-8.19-32.57a5.65 5.65 0 0 0 -11.13 1.4v1a.93.93 0 0 0 .93.92z"/><path d="m24.42 58.44a2.8 2.8 0 1 0 -2.8-2.8 2.79 2.79 0 0 0 2.8 2.8zm0-3.73a.93.93 0 1 1 -.94.93.93.93 0 0 1 .94-.93z"/><path d="m43.06 52.84a2.8 2.8 0 1 0 2.8 2.8 2.8 2.8 0 0 0 -2.8-2.8zm0 3.73a.93.93 0 1 1 .94-.93.93.93 0 0 1 -.94.93z"/></g></svg>