<svg viewBox="0 0 58.05 60" xmlns="http://www.w3.org/2000/svg"><path d="m9.03 0h40v60h-40z" fill="#2bf8f5"/><g fill="#411b90" transform="translate(-.97)"><path d="m57 37h-21a1 1 0 1 0 0 2h21v3h-18.53a1 1 0 0 0 0 2h14.53v3h-14a1 1 0 1 0 0 2h18v3h-19.25a1 1 0 0 0 0 2h19.25v3h-22.81a1 1 0 0 0 0 2h22.81a2 2 0 0 0 2-2v-3a2 2 0 0 0 -.28-1 2 2 0 0 0 .28-1v-3a2 2 0 0 0 -2-2h-2v-3h2a2 2 0 0 0 2-2v-3a2 2 0 0 0 -2-2z"/><path d="m15 28a5 5 0 0 0 5-5 4.85 4.85 0 0 0 -.53-2.2l6.34-5a4.89 4.89 0 0 0 6.42 0l6.34 5a5 5 0 1 0 8-1.34l5.69-8.78a5.11 5.11 0 0 0 1.74.32 5 5 0 1 0 -3.49-1.43l-5.7 8.78a4.88 4.88 0 0 0 -5 .85l-6.34-5a5 5 0 1 0 -8.9 0l-6.34 5a4.89 4.89 0 0 0 -3.23-1.2 5 5 0 0 0 0 10zm39-25a3 3 0 1 1 -3 3 3 3 0 0 1 3-3zm-11 17a3 3 0 1 1 -3 3 3 3 0 0 1 3-3zm-14-11a3 3 0 1 1 -3 3 3 3 0 0 1 3-3zm-14 11a3 3 0 1 1 -3 3 3 3 0 0 1 3-3z"/><path d="m24 39a8 8 0 1 0 8 8 8 8 0 0 0 -8-8zm0 14a6 6 0 1 1 6-6 6 6 0 0 1 -6 6z"/><path d="m24 35a12 12 0 1 0 12 12 12 12 0 0 0 -12-12zm0 22a10 10 0 1 1 10-10 10 10 0 0 1 -10 10z"/><path d="m23.51 45h2.49a1 1 0 1 0 0-2h-1a1 1 0 0 0 -2 0 2.51 2.51 0 1 0 .5 5h1a.5.5 0 1 1 0 1h-2.5a1 1 0 0 0 0 2h1a1 1 0 0 0 2 0 2.51 2.51 0 0 0 -.5-5h-1a.5.5 0 0 1 0-1z"/><path d="m13 35a6 6 0 0 1 2.29.45 1 1 0 1 0 .76-1.84 7.76 7.76 0 0 0 -3.05-.61 8 8 0 0 0 -4.55 14.57 1 1 0 0 0 1.39-.25 1 1 0 0 0 -.25-1.39 6 6 0 0 1 3.41-10.93z"/><path d="m10 50.55a10 10 0 1 1 9.4-17.24 1 1 0 1 0 1.28-1.54 12 12 0 1 0 -11 20.73 1 1 0 0 0 .3-2z"/></g></svg>