<?xml version="1.0" standalone="no"?>
<!DOCTYPE svg PUBLIC "-//W3C//DTD SVG 20010904//EN"
 "http://www.w3.org/TR/2001/REC-SVG-20010904/DTD/svg10.dtd">
<svg version="1.0" xmlns="http://www.w3.org/2000/svg"
 width="1040.000000pt" height="1040.000000pt" viewBox="0 0 1040.000000 1040.000000"
 preserveAspectRatio="xMidYMid meet">
<metadata>
Created by potrace 1.11, written by Peter Selinger 2001-2013
</metadata>
<g transform="translate(0.000000,1040.000000) scale(0.100000,-0.100000)"
fill="#000000" stroke="none">
<path d="M724 10348 c4 -29 18 -179 31 -333 14 -154 41 -455 60 -670 19 -214
51 -565 70 -780 19 -214 51 -565 70 -780 19 -214 51 -565 70 -780 19 -214 51
-565 70 -780 19 -214 51 -565 70 -780 19 -214 51 -565 70 -780 19 -214 51
-565 70 -780 19 -214 84 -941 145 -1615 60 -674 110 -1226 110 -1227 0 -1 26
-10 58 -18 31 -9 95 -27 142 -40 47 -13 407 -114 800 -224 674 -189 1202 -340
1680 -481 52 -15 158 -46 235 -69 77 -22 272 -79 433 -126 l292 -85 293 85
c506 148 569 166 687 201 513 151 1052 305 1660 475 393 110 753 211 800 224
47 13 110 31 142 39 l56 16 6 57 c4 32 142 1563 306 3403 165 1840 329 3671
365 4070 36 399 86 950 110 1225 25 275 48 524 51 553 l6 52 -4482 0 -4482 0
6 -52z m2480 -1641 c40 -139 156 -217 374 -253 155 -25 372 0 483 57 89 45
179 158 179 227 l0 22 203 0 203 0 18 -60 c35 -118 140 -197 311 -237 108 -24
394 -24 505 1 181 41 289 125 321 250 l11 46 204 0 204 0 0 -22 c0 -64 77
-167 160 -215 105 -62 303 -88 445 -59 90 19 184 59 233 100 38 33 75 94 93
154 l12 42 208 0 207 0 6 -27 c3 -16 33 -183 65 -373 57 -328 172 -993 301
-1734 33 -187 57 -342 55 -344 -4 -5 -385 -110 -414 -115 -9 -1 -20 21 -33 68
-50 185 -133 457 -186 615 -251 742 -440 961 -907 1046 -58 10 -173 18 -322
21 l-233 6 0 -2709 c0 -2974 -4 -2783 61 -2904 85 -160 264 -242 562 -258
l132 -7 3 -202 2 -203 -1480 0 -1480 0 2 203 3 202 125 7 c407 22 585 154 620
461 7 62 10 942 8 2747 l-3 2655 -220 -1 c-184 -1 -239 -4 -333 -23 -398 -77
-584 -259 -785 -766 -73 -185 -172 -485 -243 -737 -31 -112 -60 -207 -65 -212
-7 -8 -391 87 -418 104 -7 4 11 128 49 345 92 529 235 1355 301 1735 32 190
62 357 65 373 l6 27 183 0 184 0 15 -53z"/>
</g>
</svg>
